<?xml version="1.0" encoding="UTF-8" standalone="no"?>
<!DOCTYPE svg PUBLIC "-//W3C//DTD SVG 1.1//EN" "http://www.w3.org/Graphics/SVG/1.1/DTD/svg11.dtd">
<svg width="100%" height="100%" viewBox="0 0 35546 3086" version="1.1" xmlns="http://www.w3.org/2000/svg" xmlns:xlink="http://www.w3.org/1999/xlink" xml:space="preserve" xmlns:serif="http://www.serif.com/" style="fill-rule:evenodd;clip-rule:evenodd;stroke-linejoin:round;stroke-miterlimit:2;">
    <g transform="matrix(1,0,0,1,-73766,-16372.9)">
        <g id="green-divider" transform="matrix(1,0,0,0.321313,-0.437823,16372.9)">
            <rect x="73766.4" y="0" width="35545.8" height="9603.25" style="fill:none;"/>
            <clipPath id="_clip1">
                <rect x="73766.4" y="0" width="35545.8" height="9603.25"/>
            </clipPath>
            <g clip-path="url(#_clip1)">
                <g transform="matrix(-1,0,0,3.11223,147399,-20284.3)">
                    <path d="M37979.2,8927.59L37977.6,8897.8C37977.6,8897.8 37979,8897.32 37981.7,8896.55L38012.3,8540.53C38238.7,8556.92 38164.6,8187.06 38137,8037.58C38126.6,7981.26 38043.2,7752.43 38081.1,7731.3C38319.8,7598.32 38286.4,8216.9 38601.2,8219.34C38661,8219.8 38712.7,8175.63 38739.4,8124.66C38835.2,7941.82 38616.2,7708.67 38508.4,7580.94C38470.9,7536.56 38433,7492.53 38395.1,7448.56C38377,7427.61 38358.7,7406.81 38341.1,7385.51C38340.3,7384.57 38337.6,7382.52 38338.7,7382.71C38570.8,7419.19 38986.3,7916.72 39128.8,8090.23C39188.1,8162.34 39230.2,8244.28 39263,8331.4C39277,8368.45 39289.1,8406.46 39294.9,8445.73C39296.4,8456.29 39292.6,8486.68 39298.1,8477.58C39386.4,8333.01 39352.2,8176.81 39288,8031.9C39287.1,8029.72 39286.1,8027.53 39285.1,8025.37C39261.7,7974.79 39234.8,7925.8 39209.6,7876.11C39206.4,7869.75 39194,7861.03 39199.9,7857.04C39214.1,7847.46 39254,7860.21 39267,7863.77C39396.7,7899.32 39482.3,8080.92 39509.3,7926.28C39514.7,7895.48 39514.1,7863.86 39510.9,7832.86C39487.9,7609.32 39295,7501.64 39153.6,7355.88C39147.4,7349.49 39128.9,7335.1 39137.7,7334.45C39292.7,7323.22 39471.7,7477.6 39574.5,7576.81C39593.1,7594.73 39613.8,7628.48 39637.5,7639.27C39753.8,7692.07 39989.9,7436.52 40047.2,7391.46C40203.1,7268.82 40384.2,7181.07 40567.2,7106.3C40642.9,7075.39 40720.8,7044.76 40801.6,7029.79C40842,7022.31 40889.2,7015.13 40887.4,7020.73C40774.8,7361.44 40386.4,7525.78 40134.4,7748.52C40081.5,7795.25 40014.6,7848.17 39985.9,7915.5C39930.4,8045.44 40046.9,8154.11 40099.5,8260.82C40147.9,8359.04 40180.4,8463.04 40208.2,8568.67C40215.8,8597.38 40223.4,8626.08 40231.1,8654.75C40232.5,8660.15 40232.6,8669.65 40233.2,8677.47C40239.9,8677.79 40246.6,8678.14 40253.4,8678.53C40327.2,8611.25 40354.2,8472.98 40397.3,8392.13C40541.1,8122.22 40775.2,7812.77 41062.1,7685.86C41082.8,7676.68 41153.1,7638.34 41173.4,7648.07C41180.1,7651.31 41130,7750.61 41114,7778.04C40954.2,8051.76 40682.4,8252.42 40587,8567.09C40581.5,8585.2 40559.5,8630.38 40576.9,8622.99C40641,8595.8 40697.6,8540.37 40754,8502.02C40788.5,8478.52 41162.1,8212.76 41193.6,8309.84C41229,8419.38 40795.8,8678.73 41297.8,8913.34C41649,9041.54 41947.9,9199.35 42087.2,9328.33C42443.2,9657.73 43175.8,9226.63 43804.1,8966.47C44432.5,8706.32 45427.5,9135.09 46360.4,8977.03C46503.8,8952.74 46924.5,8782.11 47328.1,8805.9C47890.6,8839.06 48455,9079.06 48498.9,9104.57C49049.5,9424.72 50475.3,9265.08 50829.8,9040.17C50839,9034.34 50849.9,9028.74 50862.6,9023.35L50863.4,9016.56C50932.5,8946.81 50995.3,8822.79 50971.4,8736.59C50962.4,8704.12 50890.2,8572.16 50923,8559.97C51129.7,8483.28 51100.7,8840 51373.3,8841.41C51425.1,8841.68 51469.9,8816.2 51493,8786.81C51575.9,8681.37 51386.3,8546.92 51293,8473.26C51260.5,8447.67 51227.7,8422.27 51194.9,8396.92C51179.2,8384.84 51163.4,8372.84 51148.1,8360.56C51147.4,8360.02 51145.1,8358.84 51146.1,8358.95C51347,8379.98 51706.8,8666.9 51830.2,8766.95C51881.4,8808.54 51917.9,8855.79 51946.3,8906.03C51947,8907.17 51947.6,8908.31 51948.3,8909.45C51972.1,8908.84 51996.1,8908.27 52020.3,8907.75C52031.3,8849.35 52005.6,8789.85 51968,8733.32C51967.2,8732.06 51966.3,8730.8 51965.4,8729.55C51945.2,8700.39 51921.9,8672.13 51900.1,8643.48C51897.3,8639.81 51886.6,8634.78 51891.7,8632.48C51903.9,8626.96 51938.5,8634.31 51949.8,8636.36C52062.1,8656.86 52136.2,8761.59 52159.6,8672.41C52164.2,8654.65 52163.7,8636.41 52161,8618.53C52141,8489.62 51974,8427.53 51851.6,8343.47C51846.3,8339.79 51830.2,8331.49 51837.9,8331.12C51972,8324.64 52127,8413.67 52216,8470.88C52232.1,8481.21 52250,8500.68 52270.6,8506.9C52371.3,8537.35 52625,8803.79 52670.6,8865.33C52712.5,8921.98 52730.5,8824.5 52754.6,8885.42C52757.1,8891.62 52759.5,8897.82 52762,8904.02C52810.4,8904.45 52858.7,8904.99 52906.8,8905.63C52932.6,8894.32 52955,8880.88 52971.2,8860.68C53095.7,8705.03 53255.5,8606.95 53504,8533.76C53521.9,8528.47 53582.8,8506.36 53600.3,8511.97C53606.1,8513.84 53562.8,8571.1 53548.9,8586.92C53446.9,8703.28 53292.2,8796.74 53184.9,8910.52C53273.5,8912.45 53360.3,8914.68 53444.2,8917.15C53526.7,8887.22 53605,8867.28 53617.8,8893.6C53621.8,8901.84 53618.9,8911.56 53611.8,8922.51C54045.3,8937.57 54375.1,8958.34 54448.6,8973.98C54690.8,9025.48 57256,9271.26 57744.8,9104.57C58233.6,8937.87 58128.5,8912.62 58698.9,8897.8C58822.5,8894.59 59071.4,8895.77 59388.6,8899.72C59526.1,8867.41 59728.8,8804.84 59522.6,8352.05C59467.4,8230.77 59758.3,8581.38 59778.4,8613.33C59811.2,8665.47 59844.1,8740.82 59881.4,8777.79C59891.5,8787.85 59878.7,8726.43 59875.5,8701.79C59820,8273.98 59661.9,8001.17 59568.9,7629.02C59559.6,7591.73 59530.5,7456.72 59534.4,7452.32C59546.2,7439.08 59587.1,7491.22 59599.1,7503.69C59766,7676.24 59902.2,8096.97 59985.8,8463.93C60012.3,8580.04 60028.3,8783.25 60077.1,8867.81C60082.6,8877.44 60080.7,8836.59 60082.5,8820.98C60087,8782 60091.4,8742.98 60095.8,8703.95C60112,8560.33 60130.9,8418.94 60159.1,8285.39C60189.6,8140.31 60257.4,7992.57 60225.2,7815.91C60208.4,7724.37 60169.5,7652.42 60138.8,7588.89C59992.1,7286.05 59766.2,7062.62 59700.8,6599.4C59699.7,6591.79 59727.1,6601.54 59750.6,6611.71C59797.6,6632.06 59843,6673.72 59887,6715.73C59993.4,6817.39 60098.8,6936.7 60189.5,7103.43C60222.8,7164.7 60360.1,7512.14 60427.8,7440.35C60441.6,7425.69 60453.6,7379.79 60464.4,7355.43C60524.3,7220.55 60628.4,7010.66 60718.5,7025.93C60723.7,7026.81 60712.9,7046.38 60709.3,7055.06C60627.1,7253.23 60514.8,7399.63 60501.4,7703.55C60499.6,7745.7 60499.3,7788.69 60502.4,7830.57C60518.1,8040.81 60567.9,7793.9 60643.3,7745.58C60650.9,7740.73 60674.1,7723.41 60682.4,7736.43C60685.8,7741.86 60678.6,7753.71 60676.7,7762.36C60662,7829.91 60646.4,7896.52 60632.8,7965.28C60632.2,7968.23 60631.6,7971.19 60631.1,7974.16C60593.8,8171.18 60573.9,8383.55 60625.2,8580.09C60628.4,8592.48 60626.2,8551.15 60627.1,8536.8C60630.5,8483.41 60637.5,8431.73 60645.6,8381.36C60664.7,8262.91 60689.2,8151.51 60723.7,8053.47C60806.6,7817.56 61048.3,7141.13 61183.3,7091.54C61184,7091.28 61182.4,7094.07 61181.9,7095.34C61171.7,7124.3 61161,7152.59 61150.5,7181.06C61128.4,7240.84 61106.4,7300.71 61084.6,7361.05C61021.9,7534.71 60894.5,7851.69 60950.2,8100.28C60965.8,8169.57 60995.9,8229.63 61030.6,8229C61213.8,8225.68 61194.3,7384.68 61333.2,7565.48C61355.2,7594.2 61306.7,7905.32 61300.6,7981.89C61284.9,8180.92 60706.2,8767.59 61365.5,8936.87C62082.7,8953.06 62691.4,8969.01 62815.7,8973.98C63121.8,8986.2 63759.5,9146.61 64080.6,8973.98C64401.8,8801.34 64615.4,8885.03 64838.3,9104.57C65061.1,9324.1 66629.8,9263.75 66927.5,9140.01C67225.2,9016.27 67403.2,8926.98 68096.6,9104.57C68656.4,9247.94 68815.8,9137.64 69190.5,9021.86C69086,8845.21 69005.5,8639.84 69042,8527.03C69084.7,8395.04 69592.7,8756.36 69639.7,8788.31C69693.4,8824.87 69747.3,8872.84 69804.8,8910.99C69831.3,8911.55 69856.6,8913.09 69881,8915.5C69875.8,8901.26 69869.6,8886.28 69866.7,8876.77C69736.9,8448.96 69367.4,8176.15 69150.2,7804.01C69128.4,7766.71 69060.3,7631.7 69069.4,7627.3C69097,7614.06 69192.6,7666.2 69220.8,7678.67C69610.8,7851.23 69929.1,8271.95 70124.6,8638.91C70186.5,8755.02 70223.9,8958.23 70337.9,9042.79C70350.8,9052.42 70346.3,9011.58 70350.6,8995.96C70361.1,8956.99 70371.4,8917.97 70381.7,8878.93C70419.5,8735.32 70436.1,8576.3 70529.5,8460.38C70884.2,8020.11 70719,8012.77 70643.6,7836.1C70604.5,7744.56 70894.1,7861.76 70898.8,7765.94C70959,6562.92 70999.4,7687.12 71157.6,7615.33C71189.8,7600.67 71217.9,7554.77 71243.2,7530.41C71383.1,7395.53 71626.4,7185.64 71837,7200.91C71849.1,7201.79 71823.9,7221.36 71815.4,7230.04C71623.3,7428.21 71361,7574.61 71329.7,7878.53C71325.3,7920.68 71324.6,7963.68 71331.9,8005.55C71368.6,8215.79 71484.9,7968.89 71661.3,7920.56C71679,7915.71 71733.3,7898.39 71752.5,7911.41C71760.6,7916.84 71743.8,7928.7 71739.4,7937.34C71705.1,8004.9 71668.6,8071.5 71636.7,8140.27C71635.3,8143.21 71634,8146.18 71632.7,8149.14C71545.5,8346.17 71499,8558.53 71619,8755.08C71626.5,8767.46 71621.3,8726.13 71623.4,8711.78C71631.3,8658.4 71647.7,8606.71 71666.7,8556.34C71711.3,8437.89 71768.6,8326.49 71849.1,8228.45C72042.9,7992.55 72607.8,7316.11 72923.3,7266.52C72925,7266.27 72921.3,7269.06 72920.2,7270.32C72896.2,7299.28 72871.4,7327.57 72846.8,7356.05C72795.2,7415.82 72743.7,7475.69 72692.7,7536.03C72546.1,7709.69 72248.3,8026.67 72378.6,8275.26C72414.9,8344.55 72485.3,8404.61 72566.5,8403.98C72994.6,8400.67 72949.1,7559.66 73273.6,7740.46C73325.2,7769.19 73211.8,8080.3 73197.6,8156.87C73174.8,8280.51 73278.1,8503.31 73478,8538.44C73620.7,8563.52 73735.4,8533.95 73735.4,8533.95C73776,8834.06 73795.6,9209.91 73736.2,9587.04L72618.9,9587.78C72267.4,9609.16 71877.7,9589.84 71664.7,9588.42L71615.9,9588.45C71184.3,9591.65 70754.7,9619.55 70323.4,9589.31L38015.8,9610.82L37980.4,8949.1C37979.4,8948.43 37978.5,8947.77 37977.6,8947.1L37979.2,8927.59Z" style="fill:rgb(66,131,88);"/>
                </g>
            </g>
        </g>
    </g>
</svg>
