<?xml version="1.0" encoding="UTF-8"?>
<svg xmlns="http://www.w3.org/2000/svg" version="1.1" xmlns:serif="http://www.serif.com/" xmlns:xlink="http://www.w3.org/1999/xlink" viewBox="0 0 3840 2160">
  <defs>
    <style>
      .cls-1 {
        fill: #fff;
      }

      .cls-1, .cls-2 {
        stroke: #fff;
        stroke-miterlimit: 10;
        stroke-width: 9px;
      }

      .cls-3 {
        display: none;
      }

      .cls-2 {
        fill: none;
      }
    </style>
  </defs>
  <!-- Generator: Adobe Illustrator 28.6.0, SVG Export Plug-In . SVG Version: 1.2.0 Build 709)  -->
  <g>
    <g id="Layer_2" class="cls-3">
      <image width="400" height="400" transform="translate(1760.3 1041)" xlink:href="leaf-1.png"/>
    </g>
    <g id="Layer_1">
      <path class="cls-2" d="M1827.6,1262.3l73.8-80.9c24.2-26.6,48.4-53.1,72.6-79.7,34.1-18.7,75.2-16,103.7,6.5,34.7,27.4,44.7,79.7,20.7,122.1-22.8,25.8-45.5,51.6-68.3,77.4-20.3,23-40.6,46-60.9,69-41.7,31-98.2,25.7-129.2-8.3-25-27.4-30.1-69.8-12.4-106.1Z"/>
      <path class="cls-1" d="M1901.4,1181.4c42.9,42.1,85.8,84.2,128.7,126.3-20.3,23-40.6,46-60.9,69-33.3,28.2-81.5,29.9-115.6,4.7-36.3-26.8-48-77.8-26.1-119.1l73.8-80.9Z"/>
    </g>
  </g>
</svg>