<?xml version="1.0" encoding="UTF-8"?>
<svg id="Layer_1" xmlns="http://www.w3.org/2000/svg" viewBox="0 0 400 400">
  <defs>
    <style>
      .cls-1 {
        fill: #fff;
      }

      .cls-1, .cls-2 {
        stroke: #fff;
        stroke-miterlimit: 10;
        stroke-width: 9px;
      }

      .cls-2 {
        fill: none;
      }
    </style>
  </defs>
  <path class="cls-2" d="M67.26,221.33l73.76-80.93c24.2-26.55,48.41-53.11,72.61-79.66,34.07-18.66,75.24-15.98,103.7,6.52,34.67,27.41,44.72,79.65,20.74,122.07-22.77,25.8-45.55,51.61-68.32,77.41-20.29,22.99-40.58,45.97-60.87,68.96-41.66,31.04-98.22,25.66-129.19-8.3-24.95-27.36-30.14-69.81-12.44-106.07Z"/>
  <path class="cls-1" d="M141.02,140.4c42.91,42.11,85.82,84.23,128.73,126.34-20.29,22.99-40.58,45.97-60.87,68.96-33.32,28.18-81.52,29.85-115.56,4.74-36.35-26.81-47.97-77.84-26.07-119.11l73.76-80.93Z"/>
</svg>